<?xml version="1.0" encoding="UTF-8" standalone="no"?>
<svg
   xmlns:dc="http://purl.org/dc/elements/1.1/"
   xmlns:cc="http://creativecommons.org/ns#"
   xmlns:rdf="http://www.w3.org/1999/02/22-rdf-syntax-ns#"
   xmlns:svg="http://www.w3.org/2000/svg"
   xmlns="http://www.w3.org/2000/svg"
   xmlns:sodipodi="http://sodipodi.sourceforge.net/DTD/sodipodi-0.dtd"
   xmlns:inkscape="http://www.inkscape.org/namespaces/inkscape"
   inkscape:version="1.0 (4035a4fb49, 2020-05-01)"
   width="64"
   height="64"
   viewBox="0 0 64 64"
   version="1.1"
   id="SVGRoot"
   sodipodi:docname="ppl-lovers_logo.svg">
  <title
     id="title830">64x64</title>
  <defs
     id="defs18" />
  <sodipodi:namedview
     width="96px"
     units="px"
     inkscape:window-maximized="1"
     inkscape:window-y="-8"
     inkscape:window-x="-8"
     inkscape:window-height="1009"
     inkscape:window-width="1920"
     showgrid="false"
     inkscape:document-rotation="0"
     inkscape:current-layer="layer1"
     inkscape:document-units="px"
     inkscape:cy="27.765353"
     inkscape:cx="38.201218"
     inkscape:zoom="10.718016"
     inkscape:pageshadow="2"
     inkscape:pageopacity="0.0"
     borderopacity="1.0"
     bordercolor="#666666"
     pagecolor="#ffffff"
     id="base" />
  <metadata
     id="metadata21">
    <rdf:RDF>
      <cc:Work
         rdf:about="">
        <dc:format>image/svg+xml</dc:format>
        <dc:type
           rdf:resource="http://purl.org/dc/dcmitype/StillImage" />
        <dc:title>64x64</dc:title>
      </cc:Work>
    </rdf:RDF>
  </metadata>
  <g
     id="layer1"
     inkscape:groupmode="layer"
     inkscape:label="レイヤー 1">
    <g
       transform="translate(1.2639241,3.2924577)"
       id="g1349">
      <g
         id="g1248"
         transform="matrix(1.1545007,0,0,1.1545007,-11.148464,10.514914)">
        <g
           transform="matrix(0.99720104,0,0,0.99720104,-1.6739313,-3.5347254)"
           style="font-weight:bold;font-size:40px;line-height:1.25;font-family:Arial;-inkscape-font-specification:'Arial Bold';letter-spacing:0px"
           id="text1196"
           aria-label="P">
          <g
             style="opacity:1"
             id="g1283">
            <path
               id="path1285"
               d="M 13.359851,42.545189 V 13.912376 h 9.277344 c 3.515625,0 5.807291,0.143229 6.875,0.429688 1.640625,0.429687 3.014322,1.367187 4.121093,2.8125 1.106771,1.432291 1.660157,3.28776 1.660157,5.566406 0,1.757813 -0.319011,3.235677 -0.957032,4.433594 -0.638021,1.197917 -1.451823,2.141927 -2.441406,2.832031 -0.976563,0.677083 -1.972656,1.126302 -2.988281,1.347656 -1.380209,0.273438 -3.378907,0.410157 -5.996094,0.410157 h -3.769531 v 10.800781 z m 5.78125,-23.789063 v 8.125 h 3.164062 c 2.278646,0 3.802084,-0.149739 4.570313,-0.449218 0.768229,-0.299479 1.367188,-0.768229 1.796875,-1.40625 0.442708,-0.638021 0.664062,-1.380209 0.664062,-2.226563 0,-1.041667 -0.305989,-1.901042 -0.917968,-2.578125 -0.611979,-0.677083 -1.386719,-1.10026 -2.324219,-1.269531 -0.690104,-0.130209 -2.076823,-0.195313 -4.160156,-0.195313 z"
               style="color:#000000;font-style:normal;font-variant:normal;font-weight:normal;font-stretch:normal;font-size:medium;line-height:1.25;font-family:Arial;-inkscape-font-specification:'Arial Bold';font-variant-ligatures:normal;font-variant-position:normal;font-variant-caps:normal;font-variant-numeric:normal;font-variant-alternates:normal;font-variant-east-asian:normal;font-feature-settings:normal;font-variation-settings:normal;text-indent:0;text-align:start;text-decoration:none;text-decoration-line:none;text-decoration-style:solid;text-decoration-color:#000000;letter-spacing:0px;word-spacing:normal;text-transform:none;writing-mode:lr-tb;direction:ltr;text-orientation:mixed;dominant-baseline:auto;baseline-shift:baseline;text-anchor:start;white-space:normal;shape-padding:0;shape-margin:0;inline-size:0;clip-rule:nonzero;display:inline;overflow:visible;visibility:visible;isolation:auto;mix-blend-mode:normal;color-interpolation:sRGB;color-interpolation-filters:linearRGB;solid-color:#000000;solid-opacity:1;vector-effect:none;fill:#000000;fill-opacity:1;fill-rule:nonzero;stroke:none;stroke-width:1;stroke-linecap:butt;stroke-linejoin:miter;stroke-miterlimit:4;stroke-dasharray:none;stroke-dashoffset:0;stroke-opacity:1;color-rendering:auto;image-rendering:auto;shape-rendering:auto;text-rendering:auto;enable-background:accumulate;stop-color:#000000;stop-opacity:1" />
            <path
               id="path1287"
               d="m 12.859375,13.412109 v 29.632813 h 0.5 6.28125 V 32.244141 h 3.269531 c 2.634601,0 4.654443,-0.134776 6.09375,-0.419922 h 0.0039 l 0.0059,-0.002 c 1.086685,-0.236842 2.143721,-0.715038 3.166016,-1.423828 v -0.002 h 0.002 c 1.059569,-0.73891 1.925989,-1.750391 2.595703,-3.007812 0.685722,-1.287478 1.015625,-2.849662 1.015625,-4.667969 0,-2.359598 -0.578459,-4.33729 -1.763672,-5.871094 -1.163777,-1.519755 -2.641711,-2.532179 -4.386719,-2.990234 -1.200365,-0.322049 -3.476654,-0.447266 -7.005859,-0.447266 z m 1,1 h 8.777344 c 3.502044,0 5.811041,0.161242 6.746093,0.41211 l 0.002,0.002 c 1.534364,0.401857 2.802756,1.263194 3.851562,2.632812 l 0.002,0.002 c 1.02833,1.330778 1.554688,3.062072 1.554688,5.259765 0,1.697319 -0.308118,3.090864 -0.898438,4.199219 -0.606328,1.138412 -1.365559,2.014952 -2.285156,2.65625 -0.929513,0.644462 -1.861489,1.061401 -2.804687,1.267578 -1.321106,0.261395 -3.296471,0.400391 -5.894532,0.400391 h -4.269531 v 10.800781 h -4.78125 z m 4.78125,3.84375 v 0.5 8.625 h 3.664063 c 2.30055,0 3.827858,-0.122182 4.751953,-0.482421 0.849886,-0.331312 1.542815,-0.870485 2.029297,-1.591797 0.500097,-0.722344 0.749999,-1.575811 0.75,-2.507813 0,-1.139583 -0.349368,-2.142351 -1.046876,-2.914062 C 28.106791,19.129912 27.21911,18.648121 26.1875,18.460938 25.407316,18.313732 24.027344,18.255859 21.933594,18.255859 Z m 1,1 h 2.292969 c 2.072916,0 3.468336,0.07429 4.068359,0.1875 h 0.002 0.002 c 0.841506,0.151939 1.500303,0.515047 2.041016,1.113282 0.52645,0.582455 0.789063,1.298437 0.789063,2.242187 0,0.759175 -0.190544,1.388462 -0.574219,1.941406 l -0.002,0.0039 -0.002,0.002 c -0.372813,0.553571 -0.878784,0.953408 -1.564453,1.220703 -0.612364,0.238718 -2.13193,0.414062 -4.388671,0.414062 h -2.664063 z"
               style="color:#000000;font-style:normal;font-variant:normal;font-weight:normal;font-stretch:normal;font-size:medium;line-height:1.25;font-family:Arial;-inkscape-font-specification:'Arial Bold';font-variant-ligatures:normal;font-variant-position:normal;font-variant-caps:normal;font-variant-numeric:normal;font-variant-alternates:normal;font-variant-east-asian:normal;font-feature-settings:normal;font-variation-settings:normal;text-indent:0;text-align:start;text-decoration:none;text-decoration-line:none;text-decoration-style:solid;text-decoration-color:#000000;letter-spacing:0px;word-spacing:normal;text-transform:none;writing-mode:lr-tb;direction:ltr;text-orientation:mixed;dominant-baseline:auto;baseline-shift:baseline;text-anchor:start;white-space:normal;shape-padding:0;shape-margin:0;inline-size:0;clip-rule:nonzero;display:inline;overflow:visible;visibility:visible;isolation:auto;mix-blend-mode:normal;color-interpolation:sRGB;color-interpolation-filters:linearRGB;solid-color:#000000;solid-opacity:1;vector-effect:none;fill-opacity:1;fill-rule:nonzero;stroke:none;stroke-width:1;stroke-linecap:butt;stroke-linejoin:miter;stroke-miterlimit:4;stroke-dasharray:none;stroke-dashoffset:0;stroke-opacity:1;color-rendering:auto;image-rendering:auto;shape-rendering:auto;text-rendering:auto;enable-background:accumulate;stop-color:#000000;stop-opacity:1" />
          </g>
        </g>
        <g
           transform="translate(0.1866017,-0.18660171)"
           style="font-weight:bold;font-size:21.749px;line-height:1.25;font-family:Arial;-inkscape-font-specification:'Arial Bold';letter-spacing:0px;stroke-width:0.543725"
           id="text1217"
           aria-label="PL">
          <g
             style="opacity:1"
             id="g1289">
            <path
               id="path1291"
               d="M 35.378853,27.243849 V 11.675472 h 5.044323 c 1.911533,0 3.15757,0.07788 3.73811,0.233632 0.892049,0.233632 1.638963,0.743374 2.240742,1.529227 0.601779,0.778773 0.902668,1.787637 0.902668,3.026594 0,0.955767 -0.173454,1.759319 -0.520362,2.410656 -0.346907,0.651337 -0.789392,1.164619 -1.327453,1.539846 -0.530981,0.368147 -1.072583,0.612399 -1.624804,0.732755 -0.750453,0.148675 -1.837195,0.223012 -3.260226,0.223012 h -2.049588 v 5.872655 z m 3.14341,-12.934709 v 4.417766 h 1.72038 c 1.238957,0 2.067288,-0.08142 2.484993,-0.244251 0.417705,-0.162835 0.743374,-0.417706 0.977006,-0.764614 0.240711,-0.346907 0.361067,-0.750453 0.361067,-1.210637 0,-0.566381 -0.166374,-1.033644 -0.499122,-1.401791 -0.332749,-0.368147 -0.753994,-0.598239 -1.263736,-0.690276 -0.375227,-0.0708 -1.129221,-0.106197 -2.261981,-0.106197 z"
               style="color:#000000;font-style:normal;font-variant:normal;font-weight:normal;font-stretch:normal;font-size:medium;line-height:1.25;font-family:Arial;-inkscape-font-specification:'Arial Bold';font-variant-ligatures:normal;font-variant-position:normal;font-variant-caps:normal;font-variant-numeric:normal;font-variant-alternates:normal;font-variant-east-asian:normal;font-feature-settings:normal;font-variation-settings:normal;text-indent:0;text-align:start;text-decoration:none;text-decoration-line:none;text-decoration-style:solid;text-decoration-color:#000000;letter-spacing:0px;word-spacing:normal;text-transform:none;writing-mode:lr-tb;direction:ltr;text-orientation:mixed;dominant-baseline:auto;baseline-shift:baseline;text-anchor:start;white-space:normal;shape-padding:0;shape-margin:0;inline-size:0;clip-rule:nonzero;display:inline;overflow:visible;visibility:visible;isolation:auto;mix-blend-mode:normal;color-interpolation:sRGB;color-interpolation-filters:linearRGB;solid-color:#000000;solid-opacity:1;vector-effect:none;fill:#000000;fill-opacity:1;fill-rule:nonzero;stroke:none;stroke-width:0.543725;stroke-linecap:butt;stroke-linejoin:miter;stroke-miterlimit:4;stroke-dasharray:none;stroke-dashoffset:0;stroke-opacity:1;color-rendering:auto;image-rendering:auto;shape-rendering:auto;text-rendering:auto;enable-background:accumulate;stop-color:#000000;stop-opacity:1" />
            <path
               id="path1293"
               d="m 35.107422,11.404297 v 16.111328 h 0.271484 3.416016 v -5.873047 h 1.777344 c 1.432498,0 2.529913,-0.07348 3.3125,-0.228516 h 0.002 0.0039 c 0.590859,-0.128776 1.164856,-0.390003 1.720703,-0.77539 h 0.002 c 0.576115,-0.401764 1.046017,-0.951074 1.410157,-1.634766 0.372844,-0.700034 0.552734,-1.550404 0.552734,-2.539062 0,-1.282273 -0.315266,-2.35763 -0.958984,-3.191406 -0.632943,-0.826548 -1.435634,-1.377991 -2.384766,-1.626954 h -0.002 c -0.652932,-0.174907 -1.888704,-0.242187 -3.806641,-0.242187 z m 0.542969,0.542969 h 4.773437 c 1.90415,0 3.159557,0.08821 3.667969,0.224609 0.834272,0.2185 1.523487,0.686945 2.09375,1.431641 h 0.002 v 0.002 c 0.559128,0.723578 0.845703,1.664434 0.845703,2.859375 0,0.922874 -0.16731,1.680562 -0.488281,2.283203 -0.329675,0.618983 -0.744133,1.096623 -1.244141,1.445312 -0.503489,0.348705 -1.010611,0.575304 -1.521484,0.6875 -4.36e-4,8.7e-5 -0.0015,-8.6e-5 -0.002,0 -0.718318,0.142142 -1.792372,0.21875 -3.205078,0.21875 H 38.25 v 5.873047 H 35.650391 Z M 38.25,14.037109 v 0.271485 4.689453 h 1.992188 c 1.250866,0 2.081531,-0.06585 2.583984,-0.261719 0.462089,-0.180137 0.837051,-0.475011 1.101562,-0.867187 1.08e-4,-1.56e-4 0.0018,1.55e-4 0.002,0 0.271166,-0.392411 0.408203,-0.855275 0.408203,-1.361329 0,-0.61962 -0.19106,-1.164385 -0.570313,-1.583984 -0.371104,-0.410583 -0.852888,-0.673695 -1.414062,-0.77539 h -0.002 c -0.424397,-0.07989 -1.173082,-0.111329 -2.310546,-0.111329 z m 0.544922,0.542969 h 1.246094 c 1.127096,0 1.884689,0.04001 2.210937,0.101563 l 0.002,0.002 c 0.457548,0.08261 0.817329,0.27824 1.111328,0.603515 0.286244,0.316695 0.427735,0.707562 0.427735,1.220703 0,0.412783 -0.103887,0.754039 -0.3125,1.054688 v 0.002 l -0.002,0.002 c -0.202709,0.300991 -0.476794,0.516775 -0.84961,0.66211 -0.332957,0.129796 -1.159672,0.226562 -2.386718,0.226562 h -1.447266 z"
               style="color:#000000;font-style:normal;font-variant:normal;font-weight:normal;font-stretch:normal;font-size:medium;line-height:1.25;font-family:Arial;-inkscape-font-specification:'Arial Bold';font-variant-ligatures:normal;font-variant-position:normal;font-variant-caps:normal;font-variant-numeric:normal;font-variant-alternates:normal;font-variant-east-asian:normal;font-feature-settings:normal;font-variation-settings:normal;text-indent:0;text-align:start;text-decoration:none;text-decoration-line:none;text-decoration-style:solid;text-decoration-color:#000000;letter-spacing:0px;word-spacing:normal;text-transform:none;writing-mode:lr-tb;direction:ltr;text-orientation:mixed;dominant-baseline:auto;baseline-shift:baseline;text-anchor:start;white-space:normal;shape-padding:0;shape-margin:0;inline-size:0;clip-rule:nonzero;display:inline;overflow:visible;visibility:visible;isolation:auto;mix-blend-mode:normal;color-interpolation:sRGB;color-interpolation-filters:linearRGB;solid-color:#000000;solid-opacity:1;vector-effect:none;fill-opacity:1;fill-rule:nonzero;stroke:none;stroke-width:0.543725;stroke-linecap:butt;stroke-linejoin:miter;stroke-miterlimit:4;stroke-dasharray:none;stroke-dashoffset:0;stroke-opacity:1;color-rendering:auto;image-rendering:auto;shape-rendering:auto;text-rendering:auto;enable-background:accumulate;stop-color:#000000;stop-opacity:1" />
          </g>
          <g
             style="opacity:1"
             id="g1295">
            <path
               id="path1297"
               d="M 49.991462,27.243849 V 11.802908 h 3.143411 V 24.6208 h 7.816047 v 2.623049 z"
               style="color:#000000;font-style:normal;font-variant:normal;font-weight:normal;font-stretch:normal;font-size:medium;line-height:1.25;font-family:Arial;-inkscape-font-specification:'Arial Bold';font-variant-ligatures:normal;font-variant-position:normal;font-variant-caps:normal;font-variant-numeric:normal;font-variant-alternates:normal;font-variant-east-asian:normal;font-feature-settings:normal;font-variation-settings:normal;text-indent:0;text-align:start;text-decoration:none;text-decoration-line:none;text-decoration-style:solid;text-decoration-color:#000000;letter-spacing:0px;word-spacing:normal;text-transform:none;writing-mode:lr-tb;direction:ltr;text-orientation:mixed;dominant-baseline:auto;baseline-shift:baseline;text-anchor:start;white-space:normal;shape-padding:0;shape-margin:0;inline-size:0;clip-rule:nonzero;display:inline;overflow:visible;visibility:visible;isolation:auto;mix-blend-mode:normal;color-interpolation:sRGB;color-interpolation-filters:linearRGB;solid-color:#000000;solid-opacity:1;vector-effect:none;fill:#000000;fill-opacity:1;fill-rule:nonzero;stroke:none;stroke-width:0.543725;stroke-linecap:butt;stroke-linejoin:miter;stroke-miterlimit:4;stroke-dasharray:none;stroke-dashoffset:0;stroke-opacity:1;color-rendering:auto;image-rendering:auto;shape-rendering:auto;text-rendering:auto;enable-background:accumulate;stop-color:#000000;stop-opacity:1" />
            <path
               id="path1299"
               d="m 49.71875,11.53125 v 15.984375 h 0.273438 11.230468 V 24.349609 H 53.40625 V 11.53125 Z m 0.544922,0.542969 h 2.599609 v 12.818359 h 7.816407 v 2.080078 H 50.263672 Z"
               style="color:#000000;font-style:normal;font-variant:normal;font-weight:normal;font-stretch:normal;font-size:medium;line-height:1.25;font-family:Arial;-inkscape-font-specification:'Arial Bold';font-variant-ligatures:normal;font-variant-position:normal;font-variant-caps:normal;font-variant-numeric:normal;font-variant-alternates:normal;font-variant-east-asian:normal;font-feature-settings:normal;font-variation-settings:normal;text-indent:0;text-align:start;text-decoration:none;text-decoration-line:none;text-decoration-style:solid;text-decoration-color:#000000;letter-spacing:0px;word-spacing:normal;text-transform:none;writing-mode:lr-tb;direction:ltr;text-orientation:mixed;dominant-baseline:auto;baseline-shift:baseline;text-anchor:start;white-space:normal;shape-padding:0;shape-margin:0;inline-size:0;clip-rule:nonzero;display:inline;overflow:visible;visibility:visible;isolation:auto;mix-blend-mode:normal;color-interpolation:sRGB;color-interpolation-filters:linearRGB;solid-color:#000000;solid-opacity:1;vector-effect:none;fill-opacity:1;fill-rule:nonzero;stroke:none;stroke-width:0.543725;stroke-linecap:butt;stroke-linejoin:miter;stroke-miterlimit:4;stroke-dasharray:none;stroke-dashoffset:0;stroke-opacity:1;color-rendering:auto;image-rendering:auto;shape-rendering:auto;text-rendering:auto;enable-background:accumulate;stop-color:#000000;stop-opacity:1" />
          </g>
        </g>
      </g>
      <g
         id="g1301"
         transform="matrix(1.2380374,0,0,1.2380374,-8.4146728,-5.9043683)">
        <path
           id="path1303"
           d="m 17.259766,5.9199219 c -4.294957,0 -7.7949221,3.4999653 -7.7949222,7.7949221 0,4.294956 3.4999652,7.796875 7.7949222,7.796875 4.171826,0 7.533747,-3.323779 7.726562,-7.449219 a 0.89156502,0.89156502 0 0 0 0.07031,-0.347656 0.89156502,0.89156502 0 0 0 -0.06836,-0.337891 C 24.800554,9.2468348 21.434975,5.9199219 17.259766,5.9199219 Z m 0,1.7832031 c 3.331281,0 6.013671,2.680437 6.013672,6.011719 0,3.331281 -2.682391,6.013672 -6.013672,6.013672 -3.331282,0 -6.011719,-2.682391 -6.011719,-6.013672 0,-3.331282 2.680437,-6.011719 6.011719,-6.011719 z"
           style="color:#000000;font-style:normal;font-variant:normal;font-weight:normal;font-stretch:normal;font-size:medium;line-height:normal;font-family:sans-serif;font-variant-ligatures:normal;font-variant-position:normal;font-variant-caps:normal;font-variant-numeric:normal;font-variant-alternates:normal;font-variant-east-asian:normal;font-feature-settings:normal;font-variation-settings:normal;text-indent:0;text-align:start;text-decoration:none;text-decoration-line:none;text-decoration-style:solid;text-decoration-color:#000000;letter-spacing:normal;word-spacing:normal;text-transform:none;writing-mode:lr-tb;direction:ltr;text-orientation:mixed;dominant-baseline:auto;baseline-shift:baseline;text-anchor:start;white-space:normal;shape-padding:0;shape-margin:0;inline-size:0;clip-rule:nonzero;display:inline;overflow:visible;visibility:visible;isolation:auto;mix-blend-mode:normal;color-interpolation:sRGB;color-interpolation-filters:linearRGB;solid-color:#000000;solid-opacity:1;vector-effect:none;fill-opacity:1;fill-rule:nonzero;stroke:none;stroke-width:1.78313;stroke-linecap:round;stroke-linejoin:round;stroke-miterlimit:4;stroke-dasharray:none;stroke-dashoffset:0;stroke-opacity:1;paint-order:markers stroke fill;color-rendering:auto;image-rendering:auto;shape-rendering:auto;text-rendering:auto;enable-background:accumulate;stop-color:#000000;stop-opacity:1" />
        <path
           id="path1305"
           d="m 24.164919,13.715226 c 0,3.813119 -3.091144,6.904263 -6.904263,6.904263 -3.813119,0 -6.904263,-3.091144 -6.904263,-6.904263 0,-3.8131191 3.091144,-6.9042628 6.904263,-6.9042628 3.813119,0 6.904263,3.0911437 6.904263,6.9042628"
           style="color:#000000;font-style:normal;font-variant:normal;font-weight:normal;font-stretch:normal;font-size:medium;line-height:normal;font-family:sans-serif;font-variant-ligatures:normal;font-variant-position:normal;font-variant-caps:normal;font-variant-numeric:normal;font-variant-alternates:normal;font-variant-east-asian:normal;font-feature-settings:normal;font-variation-settings:normal;text-indent:0;text-align:start;text-decoration:none;text-decoration-line:none;text-decoration-style:solid;text-decoration-color:#000000;letter-spacing:normal;word-spacing:normal;text-transform:none;writing-mode:lr-tb;direction:ltr;text-orientation:mixed;dominant-baseline:auto;baseline-shift:baseline;text-anchor:start;white-space:normal;shape-padding:0;shape-margin:0;inline-size:0;clip-rule:nonzero;display:inline;overflow:visible;visibility:visible;isolation:auto;mix-blend-mode:normal;color-interpolation:sRGB;color-interpolation-filters:linearRGB;solid-color:#000000;solid-opacity:1;vector-effect:none;fill:#000000;fill-opacity:1;fill-rule:nonzero;stroke:none;stroke-width:1.78313;stroke-linecap:round;stroke-linejoin:round;stroke-miterlimit:4;stroke-dasharray:none;stroke-dashoffset:0;stroke-opacity:1;paint-order:markers stroke fill;color-rendering:auto;image-rendering:auto;shape-rendering:auto;text-rendering:auto;enable-background:accumulate;stop-color:#000000;stop-opacity:1" />
      </g>
      <g
         id="g1307"
         transform="matrix(1.2380374,0,0,1.2380374,-8.4146728,-5.9043683)">
        <path
           id="path1309"
           d="m 36.433594,13.074219 c -2.640817,0 -4.792969,2.152151 -4.792969,4.792969 0,2.640817 2.152152,4.792968 4.792969,4.792968 2.566056,0 4.63287,-2.044133 4.75,-4.582031 a 0.54819,0.54819 0 0 0 0.04297,-0.210937 0.54819,0.54819 0 0 0 -0.04297,-0.210938 c -0.11713,-2.537898 -2.183944,-4.582031 -4.75,-4.582031 z m 0,1.095703 c 2.048289,0 3.697266,1.648977 3.697265,3.697266 10e-7,2.048288 -1.648976,3.697265 -3.697265,3.697265 -2.04829,0 -3.697266,-1.648976 -3.697266,-3.697265 0,-2.04829 1.648976,-3.697266 3.697266,-3.697266 z"
           style="color:#000000;font-style:normal;font-variant:normal;font-weight:normal;font-stretch:normal;font-size:medium;line-height:normal;font-family:sans-serif;font-variant-ligatures:normal;font-variant-position:normal;font-variant-caps:normal;font-variant-numeric:normal;font-variant-alternates:normal;font-variant-east-asian:normal;font-feature-settings:normal;font-variation-settings:normal;text-indent:0;text-align:start;text-decoration:none;text-decoration-line:none;text-decoration-style:solid;text-decoration-color:#000000;letter-spacing:normal;word-spacing:normal;text-transform:none;writing-mode:lr-tb;direction:ltr;text-orientation:mixed;dominant-baseline:auto;baseline-shift:baseline;text-anchor:start;white-space:normal;shape-padding:0;shape-margin:0;inline-size:0;clip-rule:nonzero;display:inline;overflow:visible;visibility:visible;isolation:auto;mix-blend-mode:normal;color-interpolation:sRGB;color-interpolation-filters:linearRGB;solid-color:#000000;solid-opacity:1;vector-effect:none;fill-opacity:1;fill-rule:nonzero;stroke:none;stroke-width:1.09638;stroke-linecap:round;stroke-linejoin:round;stroke-miterlimit:4;stroke-dasharray:none;stroke-dashoffset:0;stroke-opacity:1;paint-order:markers stroke fill;color-rendering:auto;image-rendering:auto;shape-rendering:auto;text-rendering:auto;enable-background:accumulate;stop-color:#000000;stop-opacity:1" />
        <path
           id="path1311"
           d="m 40.679175,17.867113 c 0,2.344553 -1.900635,4.245189 -4.245188,4.245189 -2.344553,0 -4.245189,-1.900636 -4.245189,-4.245189 0,-2.344553 1.900636,-4.245189 4.245189,-4.245189 2.344553,0 4.245188,1.900636 4.245188,4.245189"
           style="color:#000000;font-style:normal;font-variant:normal;font-weight:normal;font-stretch:normal;font-size:medium;line-height:normal;font-family:sans-serif;font-variant-ligatures:normal;font-variant-position:normal;font-variant-caps:normal;font-variant-numeric:normal;font-variant-alternates:normal;font-variant-east-asian:normal;font-feature-settings:normal;font-variation-settings:normal;text-indent:0;text-align:start;text-decoration:none;text-decoration-line:none;text-decoration-style:solid;text-decoration-color:#000000;letter-spacing:normal;word-spacing:normal;text-transform:none;writing-mode:lr-tb;direction:ltr;text-orientation:mixed;dominant-baseline:auto;baseline-shift:baseline;text-anchor:start;white-space:normal;shape-padding:0;shape-margin:0;inline-size:0;clip-rule:nonzero;display:inline;overflow:visible;visibility:visible;isolation:auto;mix-blend-mode:normal;color-interpolation:sRGB;color-interpolation-filters:linearRGB;solid-color:#000000;solid-opacity:1;vector-effect:none;fill:#000000;fill-opacity:1;fill-rule:nonzero;stroke:none;stroke-width:1.09638;stroke-linecap:round;stroke-linejoin:round;stroke-miterlimit:4;stroke-dasharray:none;stroke-dashoffset:0;stroke-opacity:1;paint-order:markers stroke fill;color-rendering:auto;image-rendering:auto;shape-rendering:auto;text-rendering:auto;enable-background:accumulate;stop-color:#000000;stop-opacity:1" />
      </g>
    </g>
  </g>
</svg>
